<svg width="173" height="29" viewBox="0 0 173 29" fill="none" xmlns="http://www.w3.org/2000/svg">
    <path fill-rule="evenodd" clip-rule="evenodd" d="M34.106 7.442h3.1v1.753a4.835 4.835 0 0 1 1.798-1.505c.73-.359 1.563-.54 2.5-.54 1.168 0 2.158.233 2.966.702a4.713 4.713 0 0 1 1.856 1.928 5.432 5.432 0 0 1 2.032-1.928c.848-.47 1.818-.702 2.908-.702 2.007 0 3.518.55 4.532 1.65 1.013 1.102 1.52 2.597 1.52 4.487v8.767h-3.186v-8.562c0-1.11-.287-1.993-.863-2.645-.575-.654-1.418-.979-2.529-.979-.992 0-1.822.33-2.485.994-.662.661-.994 1.646-.994 2.95v8.242h-3.157v-8.708c0-1.072-.287-1.92-.862-2.544-.575-.622-1.388-.934-2.44-.934-1.035 0-1.886.341-2.56 1.022-.67.683-1.007 1.696-1.007 3.04v8.124h-3.129V7.442zM66.67 19.424a4.24 4.24 0 0 0 1.753-.365 4.484 4.484 0 0 0 1.433-1.008c.409-.429.73-.926.964-1.491.233-.565.35-1.17.35-1.813 0-.642-.117-1.245-.35-1.81a4.8 4.8 0 0 0-.964-1.491 4.536 4.536 0 0 0-1.433-1.009 4.256 4.256 0 0 0-1.754-.364 4.33 4.33 0 0 0-1.784.364 4.373 4.373 0 0 0-1.418 1.009c-.399.43-.71.925-.934 1.49a4.856 4.856 0 0 0-.336 1.811c0 .643.11 1.248.336 1.813.223.565.535 1.062.934 1.49a4.315 4.315 0 0 0 3.202 1.373zm0 2.923a7.454 7.454 0 0 1-2.954-.585 7.538 7.538 0 0 1-4.034-4.047 7.57 7.57 0 0 1-.586-2.968c0-1.07.196-2.069.586-2.993.39-.926.93-1.73 1.622-2.411a7.678 7.678 0 0 1 2.412-1.608 7.454 7.454 0 0 1 2.953-.586c1.053 0 2.037.196 2.954.586.914.39 1.718.925 2.41 1.608a7.354 7.354 0 0 1 1.622 2.41c.39.925.586 1.925.586 2.994a7.57 7.57 0 0 1-2.208 5.393 7.553 7.553 0 0 1-2.41 1.622c-.917.39-1.901.585-2.954.585zM76.102 7.442H79.2v1.9a5.41 5.41 0 0 1 1.901-1.607c.76-.39 1.627-.585 2.601-.585 1.852 0 3.304.56 4.356 1.68 1.053 1.121 1.58 2.685 1.58 4.69v8.534H86.48v-8.27c0-1.208-.298-2.164-.892-2.865-.595-.7-1.476-1.05-2.645-1.05-1.052 0-1.934.369-2.646 1.11-.711.74-1.067 1.752-1.067 3.039v8.036h-3.128V7.442zM99.007 9.926c-1.072 0-1.999.298-2.778.891a4.692 4.692 0 0 0-1.638 2.294h8.743c-.274-1.032-.786-1.821-1.536-2.366-.751-.546-1.681-.82-2.791-.82zm-.058 12.42c-1.15 0-2.194-.2-3.129-.599-.935-.4-1.73-.94-2.382-1.62a7.112 7.112 0 0 1-1.506-2.398 8.086 8.086 0 0 1-.526-2.922c0-1.071.195-2.076.585-3.01.39-.935.92-1.744 1.593-2.426a7.516 7.516 0 0 1 2.397-1.622 7.497 7.497 0 0 1 2.997-.6c1.072 0 2.069.187 2.996.555.926.371 1.724.893 2.397 1.564a7.276 7.276 0 0 1 1.578 2.383c.381.917.57 1.919.57 3.01v1.08h-12.13c.175 1.13.661 2.06 1.46 2.792.8.73 1.842 1.095 3.129 1.095 1.012 0 1.856-.223 2.527-.672a3.563 3.563 0 0 0 1.418-1.811h3.362c-.565 1.617-1.456 2.89-2.675 3.813-1.217.926-2.771 1.389-4.661 1.389zM112.383 21.294l-6.051-13.852h3.361l4.268 10.142 4.035-10.142h3.303l-8.828 21.363h-3.216l3.128-7.511zM122.926 10.247V.722h3.156v6.72h3.099v2.805h-3.099v5.816c0 .663.035 1.194.103 1.593.068.4.214.706.438.92.225.215.542.357.95.424.409.07.945.103 1.608.103v2.951h-.467c-1.111 0-2.037-.097-2.778-.293-.74-.194-1.335-.52-1.782-.977-.449-.46-.766-1.071-.949-1.842-.187-.77-.279-1.719-.279-2.849v-5.846zM137.466 19.424a4.24 4.24 0 0 0 1.754-.365 4.482 4.482 0 0 0 1.433-1.008c.409-.429.73-.926.964-1.491.233-.565.35-1.17.35-1.813 0-.642-.117-1.245-.35-1.81a4.801 4.801 0 0 0-.964-1.491 4.534 4.534 0 0 0-1.433-1.009 4.256 4.256 0 0 0-1.754-.364c-.643 0-1.238.12-1.784.364a4.372 4.372 0 0 0-1.418 1.009c-.399.43-.711.925-.934 1.49a4.853 4.853 0 0 0-.336 1.811c0 .643.111 1.248.336 1.813.223.565.535 1.062.934 1.49a4.317 4.317 0 0 0 3.202 1.373zm0 2.923a7.45 7.45 0 0 1-2.952-.585 7.528 7.528 0 0 1-4.035-4.047 7.56 7.56 0 0 1-.585-2.968c0-1.07.195-2.069.585-2.993.39-.926.93-1.73 1.622-2.411a7.67 7.67 0 0 1 2.413-1.608 7.45 7.45 0 0 1 2.952-.586 7.46 7.46 0 0 1 2.954.586 7.69 7.69 0 0 1 2.41 1.608 7.344 7.344 0 0 1 1.622 2.41 7.63 7.63 0 0 1 .586 2.994 7.561 7.561 0 0 1-.586 2.967 7.528 7.528 0 0 1-4.032 4.048 7.46 7.46 0 0 1-2.954.585z" fill="#353E54"/>
    <mask id="8djw5illwa" style="mask-type:luminance" maskUnits="userSpaceOnUse" x="0" y="0" width="173" height="29">
        <path fill-rule="evenodd" clip-rule="evenodd" d="M0 28.805h172.826V0H0v28.805z" fill="#fff"/>
    </mask>
    <g mask="url(#8djw5illwa)" fill-rule="evenodd" clip-rule="evenodd">
        <path d="M146.899 22.055h3.128V.722h-3.128v21.333zM152.567 22.054h3.158V7.442h-3.158v14.612zm-.526-19.229c0-.623.196-1.13.585-1.52.39-.388.896-.583 1.52-.583s1.13.195 1.52.583c.39.39.585.897.585 1.52 0 .625-.195 1.131-.585 1.52-.39.39-.896.584-1.52.584s-1.13-.193-1.52-.584c-.389-.389-.585-.895-.585-1.52zM165.254 19.483c.663 0 1.276-.127 1.842-.38a4.57 4.57 0 0 0 1.462-1.024c.409-.428.731-.93.964-1.504.234-.575.35-1.193.35-1.857 0-.642-.116-1.251-.35-1.825a4.725 4.725 0 0 0-.964-1.506 4.602 4.602 0 0 0-1.462-1.023 4.463 4.463 0 0 0-1.842-.379 4.58 4.58 0 0 0-3.288 1.372c-.419.43-.746.932-.979 1.506a4.857 4.857 0 0 0-.351 1.855c0 .664.116 1.287.351 1.871.233.585.56 1.092.979 1.52a4.583 4.583 0 0 0 3.288 1.374zm-.438 2.864a6.981 6.981 0 0 1-2.704-.541 7.445 7.445 0 0 1-2.323-1.52c-.684-.652-1.229-1.446-1.638-2.382-.409-.936-.613-1.987-.613-3.156 0-1.168.198-2.22.598-3.155a7.395 7.395 0 0 1 1.609-2.398 6.885 6.885 0 0 1 2.337-1.518 7.449 7.449 0 0 1 2.762-.527c.976 0 1.892.194 2.749.585.858.39 1.559.926 2.105 1.607v-1.9h3.128v14.612h-3.128v-2.016a5.913 5.913 0 0 1-2.135 1.695 6.308 6.308 0 0 1-2.747.614z" fill="#353E54"/>
        <path d="M21.903 16.468c0 1.18-.955 2.134-2.135 2.134H7.012a2.133 2.133 0 0 1-2.134-2.134V6.995c0-1.954 2.408-2.88 3.717-1.43l3.261 3.605a2.07 2.07 0 0 0 3.07 0l3.259-3.606c1.31-1.45 3.718-.523 3.718 1.431v9.473zM21.097 0H5.684A5.683 5.683 0 0 0 0 5.682v12.095a5.683 5.683 0 0 0 5.684 5.682h15.413a5.684 5.684 0 0 0 5.684-5.682V5.682A5.684 5.684 0 0 0 21.097 0z" fill="#FF4308"/>
        <path d="M13.39 16.24a4.727 4.727 0 0 1-4.721-4.722h2.072c0 1.462 1.189 2.65 2.65 2.65 1.46 0 2.65-1.188 2.65-2.65h2.072a4.727 4.727 0 0 1-4.722 4.721z" fill="#FF4308"/>
    </g>
</svg>
